<?xml version="1.0" standalone="no"?><!DOCTYPE svg PUBLIC "-//W3C//DTD SVG 1.1//EN" "http://www.w3.org/Graphics/SVG/1.1/DTD/svg11.dtd"><svg t="1745146685881" class="icon" viewBox="0 0 1024 1024" version="1.1" xmlns="http://www.w3.org/2000/svg" p-id="5504" xmlns:xlink="http://www.w3.org/1999/xlink" width="256" height="256"><path d="M276.883424 785.895746c-68.137344 0-132.510193-27.292582-181.260392-76.79568-48.561974-49.503098-75.289883-115.19352-75.289883-184.648437s26.727908-135.145339 75.289883-184.648437 112.934824-76.79568 181.260392-76.79568 133.639542 27.857257 181.448617 76.607455c35.57447 36.327368 35.57447 95.053477 0 131.380845a89.67025 89.67025 0 0 1-128.745699 0 74.141712 74.141712 0 0 0-52.514693-22.210515c-40.280087 0-74.348759 34.633346-74.348759 75.854557s34.068672 75.854557 74.348759 75.854556c19.575369 0 38.77429-8.093662 52.514693-22.210515a89.67025 89.67025 0 0 1 128.745699 0c35.57447 36.327368 35.57447 95.053477 0 131.380845-47.809075 48.750199-113.875947 76.607456-181.448617 76.607456z" fill="#ea5e5d" p-id="5505"></path><path d="M511.976083 1024c-68.137344 0-132.510193-27.292582-181.260393-76.79568s-75.289883-115.19352-75.289882-184.648437 27.480807-136.274687 75.101658-185.024887a89.67025 89.67025 0 0 1 128.745699 0c35.57447 36.327368 35.57447 95.053477 0 131.380845-13.928628 14.116853-21.834066 33.692222-21.834066 53.644042 0 41.032986 34.068672 75.854557 74.348759 75.854556s74.348759-34.633346 74.348759-75.854556c0-14.493302-3.576269-35.386245-20.328268-52.514693-47.9973-48.938424-75.478107-116.511093-75.478107-185.589561s26.727908-135.145339 75.289882-184.648437 112.934824-76.79568 181.260392-76.79568 132.510193 27.292582 181.260393 76.79568 75.289883 115.19352 75.289882 184.648437-27.480807 136.274687-75.101657 185.024886a89.67025 89.67025 0 0 1-128.7457 0c-35.57447-36.327368-35.57447-95.053477 0-131.380845 13.928628-14.116853 21.834066-33.692222 21.834066-53.644041 0-41.032986-34.068672-75.854557-74.348759-75.854557s-74.348759 34.633346-74.348759 75.854557c0 20.140044 8.093662 39.903638 22.210515 54.208715 47.432626 48.37375 73.59586 113.687723 73.595861 183.895539s-26.727908 135.145339-75.289883 184.648437c-48.561974 49.503098-112.934824 76.79568-181.260392 76.79568zM511.976083 293.123465L362.902115 153.084283a57.050909 57.050909 0 0 1-2.635146-80.560174 57.050909 57.050909 0 0 1 80.560175-2.635146l59.667232 56.090962 84.889342-104.841161c19.763594-24.469212 55.714513-28.233706 80.183725-8.470112 24.469212 19.763594 28.233706 55.714513 8.470112 80.183725l-161.873247 200.082863z" fill="#ea5e5d" p-id="5506"></path></svg>